<mxfile host="65bd71144e">
    <diagram id="cBAnHd3H4Ue4XTYPttxJ" name="Page-1">
        <mxGraphModel dx="570" dy="402" grid="1" gridSize="10" guides="1" tooltips="1" connect="1" arrows="1" fold="1" page="1" pageScale="1" pageWidth="1100" pageHeight="850" math="0" shadow="0">
            <root>
                <mxCell id="0"/>
                <mxCell id="1" parent="0"/>
                <mxCell id="10" value="State[obj]&lt;br&gt;subscribe( )" style="edgeStyle=none;html=1;fillColor=#60a917;strokeColor=#2D7600;" parent="1" edge="1">
                    <mxGeometry x="0.0747" relative="1" as="geometry">
                        <mxPoint x="251" y="61" as="sourcePoint"/>
                        <mxPoint x="491" y="61" as="targetPoint"/>
                        <Array as="points">
                            <mxPoint x="370" y="60"/>
                        </Array>
                        <mxPoint as="offset"/>
                    </mxGeometry>
                </mxCell>
                <mxCell id="2" value="State&lt;br&gt;" style="rounded=0;whiteSpace=wrap;html=1;fillColor=#60a917;fontColor=#ffffff;strokeColor=#2D7600;" parent="1" vertex="1">
                    <mxGeometry x="130" y="30" width="120" height="60" as="geometry"/>
                </mxCell>
                <mxCell id="11" value="State" style="edgeStyle=none;html=1;fillColor=#60a917;strokeColor=#2D7600;" parent="1" source="3" edge="1">
                    <mxGeometry relative="1" as="geometry">
                        <mxPoint x="550" y="140" as="targetPoint"/>
                    </mxGeometry>
                </mxCell>
                <mxCell id="3" value="Main" style="rounded=0;whiteSpace=wrap;html=1;fillColor=#1ba1e2;fontColor=#ffffff;strokeColor=#006EAF;" parent="1" vertex="1">
                    <mxGeometry x="490" y="30" width="120" height="60" as="geometry"/>
                </mxCell>
                <mxCell id="14" value="&lt;font style=&quot;font-size: 12px;&quot;&gt;{ dialogsData[obj], &lt;br&gt;&lt;font style=&quot;font-size: 12px;&quot;&gt;appMessage&lt;/font&gt;( ),&lt;br&gt;&lt;span style=&quot;color: rgb(220, 220, 170); background-color: rgb(31, 31, 31);&quot;&gt;updateNewMessage()&lt;/span&gt;,&lt;br&gt;&amp;nbsp;messageValue.str }&lt;/font&gt;" style="edgeStyle=none;html=1;fontSize=12;fillColor=#60a917;strokeColor=#2D7600;" parent="1" source="5" edge="1">
                    <mxGeometry x="-0.0585" y="-2" relative="1" as="geometry">
                        <mxPoint x="543.75" y="209" as="sourcePoint"/>
                        <mxPoint x="440" y="340" as="targetPoint"/>
                        <mxPoint as="offset"/>
                    </mxGeometry>
                </mxCell>
                <mxCell id="15" value="{dialogsData[obj]}" style="edgeStyle=none;html=1;entryX=0.5;entryY=0;entryDx=0;entryDy=0;fontSize=12;fillColor=#60a917;strokeColor=#2D7600;" parent="1" source="5" target="9" edge="1">
                    <mxGeometry x="0.2456" y="4" relative="1" as="geometry">
                        <mxPoint as="offset"/>
                    </mxGeometry>
                </mxCell>
                <mxCell id="17" style="edgeStyle=none;html=1;entryX=0.375;entryY=-0.047;entryDx=0;entryDy=0;entryPerimeter=0;fontSize=12;fillColor=#60a917;strokeColor=#2D7600;exitX=1;exitY=0.75;exitDx=0;exitDy=0;" parent="1" source="5" target="8" edge="1">
                    <mxGeometry relative="1" as="geometry"/>
                </mxCell>
                <mxCell id="18" style="edgeStyle=none;html=1;entryX=0.705;entryY=-0.047;entryDx=0;entryDy=0;entryPerimeter=0;fontSize=12;fillColor=#60a917;strokeColor=#2D7600;exitX=0;exitY=0.5;exitDx=0;exitDy=0;" parent="1" edge="1" source="5">
                    <mxGeometry relative="1" as="geometry">
                        <mxPoint x="421.4876806607021" y="277.82" as="sourcePoint"/>
                        <mxPoint x="219.99999999999994" y="334.99999999999994" as="targetPoint"/>
                    </mxGeometry>
                </mxCell>
                <mxCell id="5" value="App&lt;br&gt;" style="rounded=0;whiteSpace=wrap;html=1;fillColor=#0050ef;fontColor=#ffffff;strokeColor=#001DBC;" parent="1" vertex="1">
                    <mxGeometry x="420" y="150" width="280" height="60" as="geometry"/>
                </mxCell>
                <mxCell id="6" value="MyPage&lt;br&gt;" style="rounded=0;whiteSpace=wrap;html=1;fillColor=#f0a30a;fontColor=#000000;strokeColor=#BD7000;" parent="1" vertex="1">
                    <mxGeometry x="130" y="350" width="160" height="60" as="geometry"/>
                </mxCell>
                <mxCell id="19" value="action" style="edgeStyle=none;html=1;fontSize=12;fillColor=#1ba1e2;strokeColor=#006EAF;entryX=0;entryY=0.25;entryDx=0;entryDy=0;" parent="1" source="7" target="2" edge="1">
                    <mxGeometry x="-0.8936" y="-2" relative="1" as="geometry">
                        <mxPoint x="80" y="50" as="targetPoint"/>
                        <Array as="points">
                            <mxPoint x="420" y="360"/>
                            <mxPoint x="280" y="480"/>
                            <mxPoint x="80" y="480"/>
                            <mxPoint x="80" y="340"/>
                            <mxPoint x="80" y="150"/>
                            <mxPoint x="80" y="45"/>
                        </Array>
                        <mxPoint as="offset"/>
                    </mxGeometry>
                </mxCell>
                <mxCell id="7" value="Dialogs" style="rounded=0;whiteSpace=wrap;html=1;fillColor=#f0a30a;fontColor=#000000;strokeColor=#BD7000;" parent="1" vertex="1">
                    <mxGeometry x="360" y="350" width="170" height="60" as="geometry"/>
                </mxCell>
                <mxCell id="8" value="MyComponents" style="rounded=0;whiteSpace=wrap;html=1;fillColor=#f0a30a;fontColor=#000000;strokeColor=#BD7000;" parent="1" vertex="1">
                    <mxGeometry x="860" y="335" width="160" height="70" as="geometry"/>
                </mxCell>
                <mxCell id="16" style="edgeStyle=none;html=1;fontSize=12;fillColor=#60a917;strokeColor=#2D7600;" parent="1" source="9" target="7" edge="1">
                    <mxGeometry relative="1" as="geometry">
                        <mxPoint x="520" y="300" as="targetPoint"/>
                    </mxGeometry>
                </mxCell>
                <mxCell id="9" value="&lt;font style=&quot;font-size: 12px;&quot;&gt;RenederMessages&lt;/font&gt;" style="rounded=0;whiteSpace=wrap;html=1;fillColor=#e3c800;fontColor=#000000;strokeColor=#B09500;" parent="1" vertex="1">
                    <mxGeometry x="600" y="350" width="120" height="40" as="geometry"/>
                </mxCell>
            </root>
        </mxGraphModel>
    </diagram>
</mxfile>